<?xml version="1.0" standalone="no"?><!DOCTYPE svg PUBLIC "-//W3C//DTD SVG 1.1//EN" "http://www.w3.org/Graphics/SVG/1.1/DTD/svg11.dtd"><svg t="1543651599149" class="icon" style="" viewBox="0 0 1024 1024" version="1.1" xmlns="http://www.w3.org/2000/svg" p-id="8718" xmlns:xlink="http://www.w3.org/1999/xlink" width="200" height="200"><defs><style type="text/css"></style></defs><path d="M702.9 865.1c-49.3-3.5-84-16.9-116.9-35.6-76.2-43.3-137.3-103.8-193.7-169.6-62.4-72.8-122.8-146.9-162.9-235-18.9-41.6-33.9-84.3-35.1-130.7-0.9-32.7 10.5-60.2 34.2-82.5 29.5-27.8 64.3-45.5 104.4-52 21.2-3.4 38.3 3.5 48.7 23.3 23.4 44.5 43.9 90.1 56.4 139 7.3 28.6 2.4 39.7-22.2 55.7-2.2 1.5-4.6 2.8-6.9 4.2-28.2 17.3-31.4 28.4-14.7 57.4 20.7 36.1 46.8 68.4 73.5 100.1 30.5 36.3 59.7 74 97.2 103.7 21.4 16.9 30.5 16.1 50.2-2.7 6.3-6 12.5-12.2 19.3-17.4 13.1-10 26.9-13 43-5.7 51.6 23.5 97.4 55.8 141.2 91.1 8.3 6.7 11.3 16.3 11.2 26.9-0.3 53.5-84.2 132-126.9 129.8z" fill="#eb2b0e" p-id="8719"></path></svg>