<?xml version="1.0" standalone="no"?><!DOCTYPE svg PUBLIC "-//W3C//DTD SVG 1.1//EN" "http://www.w3.org/Graphics/SVG/1.1/DTD/svg11.dtd"><svg t="1543651625342" class="icon" style="" viewBox="0 0 1024 1024" version="1.1" xmlns="http://www.w3.org/2000/svg" p-id="2235" xmlns:xlink="http://www.w3.org/1999/xlink" width="200" height="200"><defs><style type="text/css"></style></defs><path d="M768 1024 256 1024C204.567273 1024 162.909091 982.341818 162.909091 930.909091L162.909091 791.272727 162.909091 744.727273 162.909091 698.181818 162.909091 93.090909C162.909091 41.658182 204.567273 0 256 0L768 0C819.432727 0 861.090909 41.658182 861.090909 93.090909L861.090909 698.181818 861.090909 744.727273 861.090909 791.272727 861.090909 930.909091C861.090909 982.341818 819.432727 1024 768 1024ZM814.545455 93.090909C814.545455 67.397818 793.693091 46.545455 768 46.545455L256 46.545455C230.306909 46.545455 209.454545 67.397818 209.454545 93.090909L209.454545 698.181818 814.545455 698.181818 814.545455 93.090909ZM814.545455 744.727273 209.454545 744.727273 209.454545 930.909091C209.454545 956.602182 230.306909 977.454545 256 977.454545L768 977.454545C793.693091 977.454545 814.545455 956.602182 814.545455 930.909091L814.545455 744.727273ZM512 930.909091C473.460364 930.909091 442.181818 899.630545 442.181818 861.090909 442.181818 822.551273 473.460364 791.272727 512 791.272727 550.539636 791.272727 581.818182 822.551273 581.818182 861.090909 581.818182 899.630545 550.539636 930.909091 512 930.909091Z" p-id="2236" fill="#eb2b0e"></path></svg>