<?xml version="1.0" standalone="no"?><!DOCTYPE svg PUBLIC "-//W3C//DTD SVG 1.1//EN" "http://www.w3.org/Graphics/SVG/1.1/DTD/svg11.dtd"><svg t="1543462647730" class="icon" style="" viewBox="0 0 1024 1024" version="1.1" xmlns="http://www.w3.org/2000/svg" p-id="1948" xmlns:xlink="http://www.w3.org/1999/xlink" width="200" height="200"><defs><style type="text/css"></style></defs><path d="M512 778.666667A330.666667 330.666667 0 1 1 842.666667 448 328.96 328.96 0 0 1 512 778.666667z m0-597.333334A266.666667 266.666667 0 1 0 778.666667 448 266.88 266.88 0 0 0 512 181.333333z" fill="#ffffff" p-id="1949"></path><path d="M328.96 912.853333a32 32 0 0 1-30.506667-42.666666 224 224 0 0 1 426.666667 0 32 32 0 1 1-61.013333 19.2 160 160 0 0 0-305.28 0 32 32 0 0 1-29.866667 23.466666z" fill="#ffffff" p-id="1950"></path><path d="M576 608h-128a32 32 0 0 1 0-64h128a32 32 0 0 1 0 64z" fill="#ffffff" p-id="1951"></path></svg>